<!-- Generated from config/initial-server-config.json. Do not edit manually. -->
<svg data-generated-from="config/initial-server-config.json" xmlns="http://www.w3.org/2000/svg" viewBox="0 0 141 141" shape-rendering="crispEdges"><path fill="#ffffff" d="M0 0h141v141H0z"/><path stroke="#06111f" d="M2 2.5h7m5 0h1m2 0h1m1 0h1m2 0h1m4 0h2m1 0h1m3 0h3m3 0h1m1 0h1m2 0h1m1 0h1m1 0h1m1 0h2m1 0h1m2 0h1m1 0h3m1 0h2m1 0h1m1 0h4m1 0h1m3 0h3m4 0h2m3 0h1m3 0h1m3 0h1m1 0h1m2 0h2m3 0h3m3 0h1m2 0h6m1 0h1m4 0h1m1 0h1m1 0h7M2 3.5h1m5 0h1m3 0h4m1 0h1m1 0h1m2 0h1m3 0h1m1 0h3m3 0h6m4 0h4m1 0h5m2 0h1m1 0h1m3 0h2m1 0h4m1 0h1m1 0h1m2 0h3m3 0h1m3 0h2m4 0h3m2 0h3m2 0h1m1 0h1m2 0h2m6 0h1m4 0h4m3 0h1m2 0h2m1 0h1m5 0h1M2 4.5h1m1 0h3m1 0h1m1 0h1m4 0h1m3 0h2m1 0h2m1 0h3m4 0h1m3 0h1m1 0h2m1 0h1m2 0h2m1 0h4m2 0h2m2 0h4m1 0h1m2 0h2m1 0h2m1 0h1m2 0h1m2 0h4m1 0h1m2 0h3m1 0h5m3 0h1m3 0h5m1 0h2m2 0h5m2 0h3m2 0h6m1 0h1m1 0h1m1 0h3m1 0h1M2 5.5h1m1 0h3m1 0h1m1 0h5m4 0h1m1 0h2m1 0h2m1 0h2m1 0h1m2 0h1m2 0h6m5 0h1m3 0h3m2 0h1m2 0h2m1 0h4m1 0h1m3 0h3m2 0h2m1 0h4m3 0h1m1 0h1m5 0h2m1 0h5m2 0h1m1 0h2m1 0h1m1 0h1m3 0h2m3 0h1m1 0h1m2 0h2m2 0h2m1 0h1m1 0h3m1 0h1M2 6.5h1m1 0h3m1 0h1m1 0h1m1 0h1m1 0h2m1 0h1m1 0h4m1 0h1m1 0h6m2 0h2m1 0h2m2 0h4m1 0h1m1 0h1m1 0h9m1 0h2m1 0h8m4 0h1m2 0h7m1 0h2m1 0h4m4 0h2m4 0h8m1 0h2m2 0h1m5 0h2m1 0h1m3 0h2m1 0h1m1 0h3m1 0h1M2 7.5h1m5 0h1m1 0h2m1 0h1m1 0h1m3 0h1m1 0h3m2 0h1m3 0h1m2 0h1m3 0h2m1 0h6m1 0h1m1 0h2m1 0h1m3 0h1m1 0h2m2 0h1m2 0h1m2 0h1m1 0h1m1 0h1m2 0h2m1 0h1m3 0h1m2 0h4m4 0h1m3 0h4m3 0h1m3 0h1m3 0h3m1 0h1m1 0h2m1 0h1m2 0h3m1 0h2m2 0h1m5 0h1M2 8.5h7m1 0h1m1 0h1m1 0h1m1 0h1m1 0h1m1 0h1m1 0h1m1 0h1m1 0h1m1 0h1m1 0h1m1 0h1m1 0h1m1 0h1m1 0h1m1 0h1m1 0h1m1 0h1m1 0h1m1 0h1m1 0h1m1 0h1m1 0h1m1 0h1m1 0h1m1 0h1m1 0h1m1 0h1m1 0h1m1 0h1m1 0h1m1 0h1m1 0h1m1 0h1m1 0h1m1 0h1m1 0h1m1 0h1m1 0h1m1 0h1m1 0h1m1 0h1m1 0h1m1 0h1m1 0h1m1 0h1m1 0h1m1 0h1m1 0h1m1 0h1m1 0h1m1 0h1m1 0h1m1 0h1m1 0h1m1 0h1m1 0h1m1 0h1m1 0h1m1 0h1m1 0h1m1 0h7M10 9.5h1m2 0h2m1 0h1m1 0h1m1 0h7m3 0h3m8 0h2m1 0h1m1 0h1m2 0h1m1 0h2m3 0h1m1 0h3m3 0h1m1 0h1m3 0h4m2 0h3m3 0h1m4 0h1m2 0h3m1 0h1m2 0h3m1 0h1m1 0h2m3 0h1m2 0h1m1 0h1m1 0h1m2 0h1m1 0h1m1 0h1m1 0h2m1 0h1m2 0h1M2 10.5h1m1 0h5m3 0h2m2 0h3m2 0h2m1 0h1m1 0h5m1 0h1m2 0h1m6 0h2m3 0h1m1 0h9m2 0h1m2 0h3m1 0h1m2 0h1m1 0h1m2 0h12m2 0h3m1 0h5m2 0h1m2 0h10m9 0h2m1 0h1m1 0h1m1 0h1m2 0h5M2 11.5h1m1 0h1m7 0h1m3 0h1m1 0h1m1 0h3m1 0h2m4 0h1m1 0h1m5 0h2m1 0h2m8 0h2m3 0h1m1 0h2m3 0h1m1 0h3m1 0h2m1 0h2m1 0h1m1 0h1m5 0h2m3 0h4m2 0h3m6 0h1m2 0h1m5 0h1m2 0h2m1 0h1m4 0h1m1 0h1m2 0h7m1 0h3M3 12.5h4m1 0h1m1 0h1m9 0h3m1 0h3m10 0h3m3 0h3m3 0h1m2 0h1m3 0h1m1 0h1m3 0h1m1 0h4m3 0h1m2 0h1m3 0h1m1 0h1m2 0h5m5 0h1m1 0h6m3 0h2m1 0h1m1 0h2m1 0h1m1 0h1m3 0h2m5 0h2m2 0h5M2 13.5h1m1 0h1m1 0h1m3 0h1m1 0h1m2 0h1m3 0h1m1 0h1m3 0h2m1 0h4m2 0h2m3 0h1m1 0h1m2 0h1m1 0h2m1 0h3m7 0h2m4 0h1m1 0h2m1 0h2m1 0h1m4 0h1m1 0h1m1 0h1m4 0h1m3 0h4m4 0h1m3 0h1m4 0h1m2 0h4m3 0h1m1 0h1m2 0h5m2 0h1m2 0h1m1 0h1m1 0h1M2 14.5h1m3 0h1m1 0h2m2 0h3m1 0h1m2 0h1m2 0h4m2 0h1m3 0h2m2 0h1m2 0h1m3 0h1m1 0h1m3 0h1m1 0h1m1 0h1m2 0h2m1 0h2m3 0h2m4 0h3m1 0h1m1 0h6m1 0h1m2 0h1m1 0h3m1 0h1m5 0h1m1 0h2m2 0h3m5 0h1m1 0h2m7 0h1m1 0h2m1 0h1m6 0h1M2 15.5h6m1 0h3m4 0h3m1 0h1m2 0h1m1 0h2m2 0h4m6 0h1m3 0h2m1 0h2m3 0h2m2 0h1m1 0h3m4 0h3m1 0h4m3 0h3m1 0h3m1 0h2m2 0h4m1 0h2m1 0h2m1 0h1m5 0h1m1 0h2m4 0h2m1 0h1m1 0h1m1 0h2m1 0h3m1 0h1m3 0h2m1 0h2m2 0h1M4 16.5h6m3 0h1m1 0h4m3 0h1m2 0h5m1 0h2m2 0h1m1 0h8m1 0h1m5 0h1m1 0h1m1 0h1m2 0h1m2 0h1m2 0h2m3 0h3m1 0h2m1 0h2m2 0h8m2 0h1m1 0h1m3 0h1m2 0h1m4 0h4m4 0h2m3 0h3m3 0h3m3 0h1m1 0h1m2 0h2M2 17.5h2m3 0h1m2 0h1m2 0h1m8 0h2m3 0h4m2 0h1m1 0h2m1 0h1m3 0h1m2 0h1m1 0h3m1 0h4m1 0h2m1 0h1m1 0h2m2 0h1m2 0h1m1 0h4m3 0h4m4 0h3m1 0h6m6 0h3m1 0h4m3 0h2m1 0h1m2 0h1m1 0h1m2 0h5m2 0h1m1 0h1m2 0h1m1 0h1M4 18.5h3m1 0h1m2 0h3m1 0h2m1 0h2m1 0h3m1 0h1m2 0h1m1 0h1m2 0h1m1 0h1m1 0h2m2 0h1m1 0h1m1 0h4m1 0h4m3 0h1m1 0h3m1 0h2m1 0h3m1 0h3m1 0h1m1 0h5m1 0h1m1 0h1m3 0h2m3 0h1m1 0h3m1 0h3m2 0h7m4 0h3m2 0h1m1 0h2m2 0h2m2 0h1m2 0h1m1 0h2m1 0h1M2 19.5h1m1 0h1m1 0h1m2 0h1m1 0h1m1 0h1m1 0h1m1 0h1m1 0h1m1 0h1m1 0h2m1 0h1m1 0h1m2 0h1m1 0h1m1 0h2m3 0h2m1 0h1m1 0h3m6 0h1m1 0h1m1 0h1m2 0h1m1 0h2m1 0h2m1 0h2m4 0h1m2 0h2m1 0h1m1 0h1m1 0h2m4 0h2m1 0h1m2 0h1m4 0h1m1 0h1m1 0h3m1 0h3m1 0h1m1 0h1m4 0h1m3 0h2m1 0h1m1 0h1m1 0h4m1 0h2M2 20.5h7m1 0h1m3 0h1m1 0h2m1 0h1m1 0h2m1 0h2m2 0h1m7 0h1m1 0h1m1 0h1m5 0h1m1 0h1m1 0h7m2 0h2m1 0h4m1 0h1m4 0h1m4 0h2m2 0h1m2 0h1m1 0h1m4 0h3m1 0h2m1 0h2m6 0h3m5 0h1m1 0h4m1 0h1m9 0h2m1 0h1m1 0h2M3 21.5h1m1 0h1m1 0h1m1 0h1m1 0h2m4 0h1m1 0h1m1 0h2m2 0h3m3 0h8m1 0h1m2 0h1m1 0h4m5 0h1m1 0h1m2 0h1m1 0h2m2 0h2m1 0h2m1 0h1m1 0h2m1 0h1m1 0h1m2 0h2m2 0h3m1 0h4m1 0h1m2 0h3m1 0h1m1 0h1m1 0h2m1 0h1m1 0h1m1 0h3m4 0h2m1 0h1m1 0h4m2 0h1m4 0h1M2 22.5h2m1 0h4m1 0h1m2 0h2m2 0h2m1 0h2m1 0h1m3 0h3m1 0h1m1 0h1m2 0h1m7 0h8m3 0h3m1 0h3m2 0h1m4 0h2m1 0h1m2 0h3m1 0h5m2 0h2m1 0h2m1 0h1m4 0h1m8 0h5m2 0h1m1 0h2m2 0h1m3 0h1m1 0h3m3 0h1m2 0h1M9 23.5h2m3 0h1m1 0h1m1 0h1m3 0h1m3 0h2m1 0h1m1 0h1m1 0h1m3 0h2m1 0h3m1 0h4m4 0h1m2 0h1m1 0h2m4 0h2m1 0h1m2 0h2m1 0h1m12 0h1m3 0h1m1 0h7m3 0h1m1 0h2m1 0h1m4 0h4m4 0h2m1 0h1m1 0h2m3 0h1m2 0h2m1 0h1m1 0h1M6 24.5h3m2 0h1m1 0h3m1 0h6m1 0h2m5 0h1m1 0h5m2 0h2m3 0h5m2 0h1m1 0h3m2 0h1m2 0h2m1 0h1m1 0h2m1 0h1m3 0h2m2 0h1m1 0h2m1 0h1m2 0h2m5 0h1m1 0h2m1 0h3m4 0h4m4 0h2m1 0h1m1 0h2m1 0h1m2 0h1m1 0h1m1 0h1m1 0h1m1 0h1m2 0h1m2 0h1M4 25.5h1m4 0h7m3 0h2m1 0h2m8 0h1m1 0h2m3 0h2m1 0h1m5 0h2m4 0h1m1 0h2m1 0h4m2 0h2m1 0h4m2 0h1m3 0h1m1 0h1m1 0h2m1 0h1m3 0h1m1 0h4m2 0h3m3 0h1m6 0h4m1 0h1m2 0h1m3 0h1m1 0h4m1 0h2m1 0h2m1 0h1m1 0h2M2 26.5h10m1 0h2m1 0h1m1 0h1m4 0h9m1 0h1m3 0h1m3 0h1m1 0h3m1 0h1m3 0h7m2 0h2m2 0h1m1 0h1m4 0h3m1 0h8m1 0h4m3 0h1m3 0h2m4 0h2m1 0h12m1 0h2m1 0h1m1 0h2m1 0h1m4 0h7m1 0h1M6 27.5h1m3 0h2m1 0h2m1 0h1m1 0h1m1 0h2m3 0h2m3 0h1m1 0h1m1 0h1m1 0h1m2 0h2m2 0h1m2 0h3m1 0h1m1 0h1m3 0h4m3 0h2m1 0h1m1 0h7m3 0h1m3 0h2m1 0h4m1 0h2m1 0h3m3 0h2m1 0h3m3 0h3m2 0h4m2 0h1m2 0h1m4 0h1m1 0h2m3 0h1m2 0h2M2 28.5h3m1 0h1m1 0h1m1 0h1m1 0h1m1 0h6m2 0h1m1 0h1m1 0h1m1 0h1m1 0h1m1 0h2m3 0h1m3 0h1m2 0h1m1 0h1m3 0h1m1 0h1m1 0h1m1 0h1m2 0h2m1 0h1m2 0h2m1 0h1m2 0h1m3 0h1m1 0h2m1 0h1m1 0h1m1 0h3m1 0h1m3 0h1m3 0h3m1 0h1m2 0h2m1 0h1m1 0h2m4 0h1m1 0h1m1 0h3m3 0h1m1 0h1m3 0h1m1 0h1m1 0h3M2 29.5h1m1 0h1m1 0h1m3 0h3m5 0h1m1 0h1m1 0h2m1 0h2m3 0h1m3 0h1m1 0h7m1 0h1m1 0h1m1 0h1m3 0h1m3 0h2m1 0h4m2 0h2m1 0h1m1 0h3m1 0h1m1 0h3m3 0h1m3 0h2m1 0h1m1 0h2m6 0h2m2 0h2m3 0h1m2 0h3m4 0h3m3 0h3m2 0h2m3 0h1m2 0h1M2 30.5h13m1 0h1m1 0h2m5 0h6m1 0h1m2 0h2m3 0h3m1 0h1m2 0h2m1 0h8m1 0h4m1 0h2m5 0h4m1 0h8m4 0h1m1 0h2m2 0h2m5 0h1m2 0h8m1 0h1m1 0h2m2 0h1m1 0h3m1 0h1m3 0h8m1 0h1M5 31.5h1m3 0h5m2 0h2m1 0h1m1 0h1m1 0h2m2 0h1m6 0h1m1 0h1m2 0h1m1 0h3m3 0h2m2 0h1m1 0h3m2 0h1m6 0h2m1 0h3m1 0h2m5 0h12m5 0h2m1 0h2m1 0h3m1 0h7m3 0h2m1 0h2m5 0h1m6 0h1m3 0h2M2 32.5h1m2 0h4m1 0h1m1 0h1m1 0h1m2 0h2m1 0h3m6 0h3m1 0h1m1 0h1m1 0h9m2 0h3m2 0h1m2 0h1m2 0h1m2 0h3m2 0h2m1 0h1m1 0h1m3 0h2m1 0h3m1 0h4m1 0h1m4 0h1m1 0h1m2 0h1m1 0h2m1 0h1m2 0h1m2 0h1m2 0h1m1 0h1m1 0h4m5 0h2m1 0h2m3 0h2m1 0h1M3 33.5h2m4 0h1m1 0h1m1 0h1m1 0h1m1 0h1m1 0h1m1 0h1m1 0h1m1 0h3m2 0h1m3 0h4m7 0h1m2 0h3m6 0h4m1 0h1m1 0h1m1 0h1m2 0h1m1 0h4m7 0h2m1 0h1m1 0h1m1 0h1m1 0h2m4 0h3m1 0h1m1 0h1m3 0h2m1 0h4m4 0h3m1 0h1m1 0h4m3 0h1m3 0h1m2 0h1M2 34.5h2m3 0h4m1 0h2m3 0h1m1 0h3m1 0h2m1 0h1m1 0h6m2 0h1m5 0h1m5 0h2m1 0h2m1 0h1m1 0h2m1 0h3m1 0h2m1 0h2m3 0h4m1 0h2m1 0h2m1 0h1m1 0h7m4 0h1m2 0h1m1 0h1m4 0h1m4 0h2m3 0h1m1 0h3m2 0h3m1 0h1m2 0h1m3 0h1m3 0h1M2 35.5h2m2 0h1m8 0h3m1 0h3m2 0h1m6 0h1m1 0h2m1 0h1m1 0h3m2 0h1m2 0h1m1 0h5m1 0h2m1 0h3m1 0h1m4 0h3m1 0h2m3 0h1m1 0h1m1 0h5m1 0h1m4 0h1m2 0h1m1 0h2m3 0h1m1 0h7m7 0h2m1 0h3m3 0h2m3 0h1m2 0h1m1 0h1M3 36.5h2m1 0h1m1 0h1m2 0h1m1 0h3m1 0h1m1 0h1m5 0h1m1 0h1m1 0h2m3 0h1m3 0h1m4 0h2m2 0h1m2 0h2m2 0h2m2 0h1m1 0h1m1 0h1m1 0h2m2 0h1m5 0h1m4 0h3m1 0h7m2 0h2m1 0h1m1 0h3m1 0h1m1 0h1m5 0h1m2 0h1m1 0h1m3 0h2m1 0h1m2 0h1m3 0h2m1 0h1m2 0h2M4 37.5h1m1 0h1m2 0h3m1 0h3m1 0h4m1 0h1m1 0h2m1 0h1m3 0h1m1 0h1m3 0h3m2 0h3m3 0h2m1 0h3m2 0h6m7 0h4m3 0h2m1 0h1m1 0h3m1 0h3m2 0h3m4 0h1m1 0h1m1 0h2m2 0h1m1 0h2m1 0h1m1 0h2m4 0h3m1 0h1m1 0h4m1 0h2m1 0h1m1 0h2m1 0h2M4 38.5h1m2 0h2m3 0h3m1 0h1m1 0h1m1 0h1m7 0h4m3 0h1m2 0h1m1 0h4m9 0h1m2 0h1m1 0h1m1 0h1m2 0h2m1 0h4m2 0h1m1 0h6m1 0h2m1 0h1m4 0h1m1 0h2m1 0h5m1 0h2m5 0h3m1 0h1m4 0h2m1 0h4m5 0h1m2 0h1m1 0h1m1 0h1m1 0h2M2 39.5h1m2 0h1m4 0h1m2 0h1m5 0h2m1 0h1m1 0h1m3 0h4m3 0h4m2 0h1m1 0h3m1 0h1m1 0h1m2 0h1m5 0h2m3 0h1m1 0h3m2 0h2m1 0h1m1 0h1m1 0h5m1 0h2m1 0h4m2 0h6m2 0h2m2 0h4m1 0h3m1 0h1m1 0h1m3 0h1m1 0h2m1 0h2m2 0h1m1 0h1m2 0h1m1 0h1M4 40.5h6m3 0h2m2 0h2m1 0h1m1 0h3m3 0h3m1 0h2m1 0h1m2 0h2m4 0h1m3 0h1m2 0h2m2 0h2m1 0h1m5 0h2m8 0h2m9 0h3m3 0h1m3 0h5m3 0h1m3 0h1m1 0h1m4 0h1m1 0h1m1 0h4m3 0h2m2 0h1m2 0h4M6 41.5h1m3 0h1m3 0h1m2 0h2m1 0h2m3 0h2m1 0h4m1 0h1m1 0h1m5 0h1m1 0h2m2 0h2m3 0h2m5 0h3m2 0h1m3 0h1m1 0h2m5 0h3m1 0h1m4 0h2m1 0h1m1 0h4m2 0h2m5 0h2m1 0h2m1 0h1m1 0h2m1 0h1m2 0h2m4 0h1m2 0h1m1 0h2m4 0h1m1 0h2M4 42.5h1m2 0h2m4 0h1m1 0h1m1 0h1m1 0h4m2 0h1m1 0h2m2 0h1m2 0h2m1 0h2m1 0h1m1 0h2m1 0h1m10 0h3m1 0h1m1 0h1m1 0h1m2 0h1m4 0h1m2 0h4m4 0h2m4 0h2m1 0h1m3 0h1m2 0h4m2 0h4m1 0h1m2 0h1m2 0h1m3 0h1m1 0h1m3 0h2m1 0h2m1 0h5m1 0h1M2 43.5h6m2 0h1m1 0h1m1 0h1m2 0h2m3 0h1m1 0h1m3 0h1m2 0h1m2 0h1m2 0h1m3 0h1m1 0h6m6 0h1m1 0h3m5 0h6m2 0h1m4 0h4m4 0h1m1 0h1m1 0h1m2 0h5m2 0h2m1 0h4m2 0h1m1 0h1m1 0h6m1 0h5m1 0h1m2 0h1m1 0h1m1 0h1m1 0h1m2 0h1M2 44.5h1m1 0h5m1 0h2m4 0h2m1 0h1m1 0h1m4 0h4m1 0h2m1 0h1m1 0h1m1 0h1m1 0h1m1 0h2m1 0h1m2 0h2m2 0h1m3 0h1m1 0h3m1 0h1m1 0h2m2 0h1m1 0h3m1 0h2m3 0h3m1 0h5m3 0h2m2 0h1m2 0h1m1 0h1m2 0h1m4 0h2m3 0h1m3 0h1m1 0h2m7 0h2m2 0h1m1 0h4M3 45.5h2m1 0h1m2 0h1m1 0h1m1 0h3m1 0h4m1 0h2m2 0h2m5 0h1m1 0h2m1 0h1m2 0h1m1 0h1m4 0h1m1 0h1m1 0h1m2 0h2m1 0h2m1 0h1m3 0h2m2 0h3m1 0h2m1 0h1m3 0h1m1 0h1m4 0h1m1 0h4m1 0h1m4 0h1m1 0h1m1 0h1m1 0h2m3 0h2m1 0h2m3 0h1m1 0h1m1 0h5m2 0h1m1 0h5m1 0h2M3 46.5h1m3 0h2m2 0h1m4 0h1m1 0h1m5 0h2m2 0h1m5 0h2m1 0h1m2 0h3m2 0h1m1 0h1m1 0h1m1 0h2m7 0h3m1 0h1m1 0h2m1 0h1m4 0h1m1 0h1m1 0h1m2 0h5m2 0h1m1 0h1m1 0h1m1 0h1m1 0h1m10 0h2m1 0h4m1 0h2m2 0h4m2 0h1m2 0h1m4 0h2m1 0h2M6 47.5h2m1 0h1m2 0h2m1 0h1m1 0h1m4 0h3m4 0h3m1 0h3m1 0h1m1 0h1m1 0h5m1 0h2m1 0h1m1 0h1m5 0h2m1 0h1m2 0h5m1 0h1m1 0h1m2 0h1m1 0h1m2 0h1m1 0h1m1 0h1m1 0h1m1 0h6m1 0h1m1 0h1m1 0h3m2 0h1m1 0h2m1 0h3m1 0h3m1 0h1m6 0h1m1 0h2m1 0h2m2 0h1m2 0h2M2 48.5h2m1 0h4m2 0h2m2 0h3m1 0h1m1 0h2m1 0h2m1 0h2m1 0h1m1 0h3m1 0h1m2 0h1m2 0h5m1 0h1m1 0h2m1 0h2m1 0h1m1 0h2m2 0h1m1 0h2m2 0h1m1 0h3m3 0h1m2 0h1m1 0h1m1 0h5m3 0h1m1 0h1m2 0h3m1 0h1m2 0h1m4 0h1m5 0h1m3 0h3m3 0h1m6 0h5M3 49.5h1m1 0h2m3 0h1m1 0h1m1 0h1m4 0h1m1 0h1m1 0h1m1 0h7m3 0h4m1 0h2m1 0h3m1 0h1m1 0h1m4 0h2m1 0h1m1 0h2m3 0h1m4 0h3m2 0h1m1 0h2m2 0h4m1 0h1m1 0h1m2 0h4m5 0h1m1 0h4m2 0h2m1 0h6m4 0h1m1 0h1m1 0h4m1 0h2m4 0h1m2 0h1M2 50.5h1m1 0h2m1 0h2m3 0h1m1 0h1m1 0h1m2 0h2m4 0h3m4 0h2m2 0h4m1 0h1m4 0h3m1 0h1m1 0h2m2 0h2m1 0h1m3 0h3m1 0h1m4 0h7m1 0h2m2 0h1m1 0h3m3 0h1m1 0h3m2 0h1m1 0h2m5 0h1m1 0h2m1 0h1m1 0h2m2 0h1m5 0h1m1 0h2m6 0h1m1 0h1M4 51.5h1m2 0h1m1 0h1m1 0h2m2 0h2m4 0h6m3 0h1m3 0h1m5 0h3m3 0h1m4 0h2m2 0h1m1 0h11m1 0h2m2 0h1m1 0h3m1 0h2m1 0h1m1 0h3m1 0h1m5 0h2m1 0h2m1 0h5m1 0h2m2 0h2m2 0h1m2 0h1m2 0h1m5 0h1m1 0h3m6 0h2M2 52.5h10m1 0h4m1 0h7m1 0h6m1 0h2m4 0h1m1 0h1m1 0h1m1 0h2m5 0h5m2 0h1m2 0h1m2 0h3m4 0h1m3 0h1m1 0h5m2 0h2m6 0h1m2 0h4m3 0h6m5 0h1m1 0h1m1 0h2m1 0h1m4 0h1m3 0h5m1 0h1M3 53.5h2m1 0h1m3 0h2m3 0h1m5 0h3m2 0h1m3 0h2m3 0h1m4 0h2m1 0h1m1 0h3m4 0h1m3 0h4m1 0h2m1 0h3m1 0h2m3 0h1m3 0h2m3 0h1m3 0h2m1 0h1m1 0h4m4 0h1m2 0h3m3 0h1m1 0h6m4 0h1m3 0h2m1 0h2m1 0h1m3 0h2m1 0h1M2 54.5h2m1 0h2m1 0h1m1 0h2m1 0h5m1 0h1m1 0h3m1 0h2m1 0h1m1 0h2m6 0h1m3 0h1m1 0h1m2 0h6m1 0h1m1 0h2m2 0h1m1 0h1m1 0h1m6 0h3m2 0h3m1 0h1m1 0h3m8 0h3m2 0h1m2 0h1m2 0h1m1 0h1m1 0h1m3 0h1m2 0h2m5 0h1m2 0h3m1 0h2m1 0h1m1 0h1m3 0h1M2 55.5h1m2 0h2m3 0h1m1 0h2m1 0h3m1 0h3m1 0h1m2 0h1m3 0h1m2 0h2m1 0h2m1 0h1m1 0h3m1 0h1m4 0h1m1 0h1m3 0h1m1 0h1m7 0h1m1 0h1m1 0h1m5 0h1m1 0h1m3 0h1m1 0h4m1 0h1m5 0h2m3 0h3m1 0h1m3 0h1m4 0h1m1 0h2m1 0h1m1 0h1m1 0h1m3 0h1m1 0h3m3 0h1M2 56.5h1m3 0h8m1 0h3m1 0h3m4 0h5m1 0h1m2 0h2m6 0h1m1 0h1m2 0h1m1 0h7m1 0h1m1 0h1m3 0h5m3 0h1m2 0h1m1 0h7m1 0h2m4 0h9m3 0h6m4 0h2m1 0h1m1 0h2m1 0h1m7 0h7M4 57.5h4m1 0h1m1 0h4m1 0h2m4 0h1m2 0h1m4 0h1m1 0h8m1 0h2m2 0h4m3 0h1m1 0h2m2 0h2m1 0h2m2 0h1m2 0h6m7 0h1m5 0h1m1 0h1m1 0h2m1 0h1m2 0h3m2 0h1m1 0h1m3 0h1m1 0h4m1 0h1m2 0h1m1 0h1m2 0h5m3 0h4M2 58.5h2m1 0h1m1 0h2m1 0h1m3 0h1m3 0h1m1 0h5m1 0h10m2 0h1m1 0h1m5 0h1m1 0h3m1 0h1m1 0h1m1 0h1m1 0h1m1 0h1m3 0h1m1 0h2m1 0h2m1 0h1m3 0h3m4 0h5m1 0h2m1 0h3m1 0h1m2 0h2m1 0h4m1 0h1m1 0h2m1 0h1m1 0h1m2 0h4m1 0h2m1 0h1m1 0h5m3 0h3M3 59.5h1m1 0h2m2 0h2m3 0h1m5 0h1m1 0h1m2 0h1m2 0h1m4 0h1m2 0h2m1 0h3m1 0h1m3 0h5m1 0h1m2 0h1m1 0h1m1 0h2m3 0h2m1 0h4m1 0h1m1 0h3m1 0h4m2 0h1m1 0h1m2 0h1m2 0h2m3 0h1m1 0h4m4 0h5m8 0h2m2 0h1m2 0h1m1 0h1m2 0h5M2 60.5h1m2 0h2m1 0h2m1 0h1m4 0h4m1 0h5m2 0h5m2 0h2m3 0h1m1 0h2m1 0h1m1 0h1m2 0h1m1 0h2m4 0h2m3 0h6m1 0h1m4 0h3m1 0h2m1 0h3m1 0h3m2 0h3m1 0h1m1 0h3m3 0h1m1 0h2m2 0h1m3 0h2m1 0h1m1 0h3m3 0h1m1 0h1m2 0h2m2 0h1m1 0h1M2 61.5h2m3 0h1m1 0h3m1 0h2m1 0h2m6 0h6m2 0h1m2 0h1m1 0h2m1 0h2m2 0h1m2 0h1m2 0h4m2 0h1m2 0h2m1 0h1m1 0h2m5 0h2m1 0h1m1 0h1m1 0h2m1 0h1m3 0h3m1 0h2m1 0h1m4 0h3m1 0h4m6 0h4m3 0h1m5 0h4m2 0h5m3 0h1M2 62.5h1m1 0h1m1 0h3m2 0h2m1 0h1m1 0h1m3 0h3m3 0h6m2 0h1m2 0h1m1 0h1m2 0h1m2 0h1m1 0h1m2 0h1m2 0h1m2 0h1m5 0h2m2 0h1m2 0h1m1 0h9m1 0h1m1 0h1m4 0h1m1 0h2m1 0h5m3 0h1m3 0h1m1 0h1m4 0h5m1 0h4m6 0h1m1 0h8M4 63.5h2m1 0h1m1 0h2m1 0h2m1 0h4m1 0h2m2 0h1m1 0h1m5 0h1m3 0h1m1 0h5m2 0h1m1 0h2m2 0h4m3 0h1m1 0h1m2 0h4m1 0h4m1 0h1m2 0h2m4 0h1m3 0h5m1 0h4m2 0h2m1 0h1m2 0h3m1 0h1m1 0h2m2 0h4m3 0h3m2 0h1m3 0h1m2 0h3m2 0h1M4 64.5h1m3 0h1m4 0h2m1 0h4m2 0h1m2 0h1m1 0h3m1 0h1m1 0h1m3 0h5m1 0h4m1 0h2m1 0h1m2 0h1m4 0h1m2 0h1m2 0h4m1 0h1m1 0h1m1 0h3m1 0h3m2 0h4m1 0h1m2 0h3m1 0h4m5 0h2m1 0h1m8 0h1m1 0h2m4 0h1m1 0h1m6 0h1m2 0h2M3 65.5h4m2 0h2m1 0h3m5 0h7m2 0h3m1 0h2m1 0h2m1 0h1m7 0h4m4 0h1m3 0h3m2 0h3m1 0h1m2 0h1m8 0h2m1 0h1m1 0h1m1 0h1m4 0h3m2 0h1m1 0h1m2 0h1m3 0h3m2 0h3m4 0h3m3 0h2m1 0h1m2 0h1m1 0h4m2 0h1M2 66.5h1m1 0h1m1 0h3m1 0h1m2 0h3m8 0h1m1 0h3m2 0h1m1 0h1m2 0h4m2 0h2m4 0h3m1 0h3m1 0h3m1 0h2m1 0h2m2 0h1m1 0h1m2 0h2m1 0h2m1 0h1m1 0h2m2 0h10m1 0h2m1 0h1m2 0h1m1 0h1m1 0h1m1 0h1m5 0h1m3 0h1m1 0h1m1 0h2m2 0h1m4 0h1m1 0h3m1 0h1M3 67.5h1m2 0h1m3 0h3m1 0h2m1 0h1m1 0h2m6 0h1m1 0h2m3 0h2m4 0h3m5 0h3m2 0h1m3 0h3m1 0h2m1 0h1m1 0h5m1 0h1m1 0h4m1 0h3m6 0h2m2 0h1m1 0h1m2 0h1m2 0h3m5 0h1m2 0h2m6 0h2m3 0h1m1 0h2m3 0h1m6 0h1M3 68.5h1m2 0h3m3 0h1m2 0h2m1 0h2m1 0h2m2 0h3m2 0h2m1 0h1m1 0h1m2 0h2m1 0h1m3 0h1m1 0h1m3 0h5m3 0h1m2 0h1m1 0h2m1 0h2m1 0h1m4 0h1m3 0h3m1 0h4m4 0h1m1 0h1m2 0h4m3 0h4m5 0h3m2 0h5m2 0h1m4 0h1m3 0h1m1 0h1m1 0h1M2 69.5h1m1 0h1m1 0h2m1 0h3m2 0h4m2 0h1m2 0h1m1 0h1m4 0h4m3 0h8m2 0h2m2 0h3m1 0h5m1 0h2m3 0h1m1 0h1m2 0h1m2 0h1m3 0h1m2 0h1m3 0h1m1 0h1m1 0h1m1 0h3m3 0h3m1 0h2m1 0h1m3 0h1m2 0h4m4 0h2m1 0h5m4 0h5m1 0h2M2 70.5h1m1 0h2m1 0h3m4 0h2m3 0h2m1 0h3m1 0h1m1 0h1m2 0h1m1 0h2m1 0h5m1 0h4m2 0h1m1 0h1m2 0h4m3 0h3m1 0h1m1 0h2m1 0h1m1 0h2m1 0h5m1 0h1m3 0h1m1 0h1m7 0h3m10 0h1m7 0h1m1 0h3m1 0h2m2 0h2m3 0h3m3 0h3M2 71.5h1m4 0h1m3 0h2m2 0h2m1 0h1m1 0h2m1 0h1m2 0h2m1 0h1m3 0h1m1 0h5m2 0h2m1 0h4m2 0h3m2 0h4m4 0h1m2 0h2m1 0h1m1 0h1m3 0h3m2 0h4m1 0h1m2 0h1m5 0h1m5 0h1m3 0h2m1 0h6m1 0h2m2 0h1m1 0h4m1 0h1m1 0h1m2 0h1m1 0h3M2 72.5h1m3 0h1m1 0h1m4 0h1m1 0h5m2 0h1m3 0h1m1 0h1m3 0h1m1 0h1m1 0h1m1 0h3m2 0h3m1 0h3m2 0h4m2 0h1m2 0h6m1 0h1m1 0h1m1 0h1m3 0h1m2 0h2m4 0h2m1 0h1m3 0h2m2 0h3m1 0h1m2 0h3m2 0h1m3 0h3m1 0h1m1 0h4m7 0h1m5 0h1M2 73.5h1m4 0h1m1 0h3m1 0h1m3 0h1m1 0h1m1 0h2m1 0h3m2 0h3m2 0h1m1 0h3m2 0h2m1 0h3m4 0h1m1 0h1m3 0h1m1 0h3m2 0h1m1 0h1m2 0h1m1 0h3m2 0h1m4 0h1m3 0h1m4 0h1m1 0h1m5 0h1m7 0h1m3 0h4m1 0h1m2 0h1m1 0h1m1 0h1m1 0h2m3 0h1m1 0h5m1 0h1M2 74.5h2m3 0h13m3 0h2m2 0h1m3 0h1m2 0h1m2 0h4m1 0h5m3 0h2m1 0h1m1 0h1m2 0h1m2 0h2m1 0h4m2 0h1m1 0h4m2 0h1m2 0h2m1 0h1m1 0h4m1 0h1m1 0h1m1 0h1m2 0h3m4 0h1m1 0h1m2 0h2m1 0h1m13 0h1m1 0h4m2 0h3M5 75.5h1m1 0h1m4 0h2m2 0h1m5 0h1m2 0h4m1 0h5m1 0h1m2 0h4m4 0h3m1 0h1m1 0h2m3 0h4m2 0h1m2 0h4m4 0h3m1 0h2m2 0h1m1 0h1m2 0h3m1 0h1m1 0h2m2 0h1m1 0h3m1 0h1m3 0h5m2 0h5m1 0h6m1 0h1m1 0h3m2 0h1m1 0h2M3 76.5h3m2 0h1m1 0h1m6 0h5m3 0h2m3 0h2m2 0h4m1 0h1m1 0h3m1 0h5m1 0h3m1 0h2m5 0h2m1 0h2m1 0h1m5 0h3m2 0h2m1 0h5m1 0h1m2 0h1m1 0h1m1 0h1m1 0h2m4 0h5m1 0h1m1 0h1m1 0h2m2 0h1m1 0h1m1 0h2m3 0h1m2 0h2m4 0h2M3 77.5h1m5 0h2m1 0h1m4 0h1m1 0h1m1 0h2m1 0h3m1 0h1m1 0h2m1 0h2m1 0h2m3 0h1m1 0h5m1 0h1m1 0h1m3 0h1m1 0h1m1 0h4m1 0h1m4 0h3m1 0h1m3 0h1m3 0h1m5 0h1m2 0h5m3 0h2m1 0h1m2 0h1m1 0h2m2 0h1m1 0h2m5 0h2m3 0h2m5 0h5m2 0h1M3 78.5h1m2 0h7m2 0h1m1 0h1m4 0h1m1 0h1m1 0h8m2 0h1m1 0h2m2 0h1m3 0h2m1 0h10m2 0h1m2 0h2m5 0h2m1 0h11m1 0h1m1 0h1m4 0h2m2 0h1m4 0h7m2 0h1m1 0h5m1 0h3m3 0h4m1 0h5m2 0h1M6 79.5h1m3 0h1m5 0h1m4 0h1m1 0h1m2 0h1m3 0h1m1 0h2m2 0h1m1 0h3m1 0h1m2 0h1m4 0h3m3 0h1m1 0h1m1 0h2m1 0h1m1 0h2m3 0h2m1 0h1m1 0h1m2 0h1m3 0h3m1 0h1m1 0h2m1 0h2m2 0h2m1 0h4m2 0h1m3 0h1m1 0h1m1 0h2m1 0h1m2 0h1m2 0h2m2 0h1m2 0h3m3 0h2m1 0h1M2 80.5h1m3 0h1m1 0h1m1 0h1m2 0h2m2 0h2m4 0h4m1 0h1m1 0h3m1 0h1m1 0h1m2 0h1m1 0h1m1 0h1m2 0h2m1 0h1m2 0h1m1 0h1m1 0h1m1 0h1m3 0h1m2 0h2m1 0h1m5 0h1m2 0h2m1 0h1m1 0h5m1 0h1m3 0h2m3 0h2m5 0h1m1 0h1m1 0h2m3 0h2m3 0h3m3 0h1m1 0h1m3 0h1m1 0h1m1 0h3M2 81.5h2m1 0h2m3 0h1m1 0h1m5 0h2m1 0h2m1 0h1m1 0h1m3 0h4m1 0h1m1 0h1m3 0h2m1 0h4m1 0h4m3 0h4m1 0h2m3 0h1m3 0h3m1 0h1m3 0h1m3 0h1m2 0h1m1 0h1m1 0h1m1 0h2m1 0h1m2 0h1m1 0h1m2 0h1m1 0h1m3 0h1m2 0h5m2 0h5m2 0h3m2 0h1m3 0h1m2 0h1M6 82.5h6m1 0h1m2 0h1m2 0h3m2 0h1m1 0h5m1 0h1m2 0h4m1 0h1m1 0h1m4 0h2m3 0h5m1 0h4m2 0h2m1 0h1m6 0h3m1 0h5m1 0h1m1 0h6m2 0h1m3 0h1m2 0h1m1 0h6m2 0h1m1 0h1m1 0h5m1 0h1m1 0h3m4 0h7M3 83.5h2m9 0h1m2 0h4m4 0h1m2 0h1m3 0h2m1 0h4m1 0h1m2 0h1m2 0h1m3 0h2m1 0h1m3 0h1m2 0h2m1 0h1m1 0h2m2 0h2m1 0h2m1 0h2m4 0h1m3 0h1m4 0h1m1 0h2m1 0h2m3 0h1m1 0h2m2 0h3m3 0h1m2 0h1m3 0h1m1 0h3m3 0h4m1 0h2m2 0h1m1 0h1M2 84.5h1m5 0h1m2 0h2m1 0h1m2 0h1m5 0h2m1 0h2m3 0h3m1 0h2m1 0h1m1 0h2m1 0h2m3 0h1m5 0h1m7 0h1m2 0h1m4 0h2m2 0h3m5 0h1m1 0h1m1 0h4m1 0h1m1 0h1m3 0h3m3 0h2m1 0h1m3 0h1m1 0h1m1 0h1m1 0h4m6 0h1m2 0h2m3 0h1m1 0h1M2 85.5h1m1 0h1m1 0h2m1 0h2m1 0h1m1 0h2m4 0h1m2 0h2m4 0h3m2 0h4m7 0h6m2 0h1m4 0h2m1 0h2m1 0h3m1 0h4m4 0h1m2 0h2m1 0h1m3 0h2m2 0h3m6 0h1m1 0h3m4 0h1m2 0h4m5 0h1m1 0h2m1 0h3m1 0h1m3 0h3M3 86.5h3m2 0h1m2 0h2m1 0h1m2 0h4m3 0h2m1 0h2m1 0h1m2 0h1m1 0h1m3 0h1m1 0h3m1 0h2m2 0h3m2 0h2m3 0h4m1 0h4m1 0h8m2 0h3m1 0h4m2 0h1m1 0h1m3 0h1m10 0h2m2 0h1m1 0h2m3 0h3m1 0h1m4 0h4m2 0h4M2 87.5h3m1 0h1m2 0h1m1 0h1m1 0h1m6 0h3m1 0h2m1 0h1m3 0h1m2 0h2m1 0h1m1 0h2m2 0h2m1 0h1m1 0h2m2 0h3m3 0h1m1 0h2m4 0h1m1 0h5m2 0h2m2 0h1m1 0h1m4 0h1m2 0h1m1 0h1m2 0h3m1 0h1m1 0h3m1 0h1m2 0h1m2 0h1m1 0h2m4 0h1m1 0h2m1 0h2m3 0h1m2 0h1m3 0h1M2 88.5h2m2 0h6m1 0h2m3 0h2m6 0h1m2 0h1m1 0h1m2 0h11m1 0h1m4 0h1m1 0h2m1 0h1m8 0h2m1 0h1m6 0h3m1 0h1m1 0h1m1 0h6m4 0h1m3 0h3m1 0h1m1 0h2m1 0h4m3 0h2m1 0h1m1 0h2m6 0h1m1 0h3m1 0h2m1 0h2M2 89.5h4m1 0h1m1 0h1m1 0h1m3 0h5m3 0h1m2 0h1m7 0h3m2 0h1m2 0h3m2 0h2m1 0h2m1 0h3m1 0h1m1 0h1m4 0h2m4 0h5m4 0h2m1 0h1m2 0h1m3 0h5m3 0h2m2 0h4m1 0h1m1 0h1m3 0h3m3 0h1m1 0h1m2 0h3m3 0h1m5 0h1M4 90.5h1m1 0h3m2 0h2m2 0h1m5 0h1m11 0h3m1 0h2m2 0h1m1 0h1m1 0h4m1 0h2m2 0h1m1 0h1m3 0h1m5 0h1m2 0h4m1 0h3m1 0h1m2 0h1m1 0h2m1 0h4m2 0h1m1 0h3m2 0h3m1 0h1m4 0h1m1 0h1m2 0h4m2 0h1m1 0h1m1 0h1m1 0h1m1 0h1m1 0h1m1 0h1m1 0h3M2 91.5h2m5 0h4m3 0h7m2 0h1m1 0h1m2 0h1m1 0h1m1 0h5m1 0h1m1 0h1m1 0h3m1 0h4m1 0h1m1 0h1m2 0h4m1 0h2m1 0h2m1 0h1m1 0h1m1 0h1m1 0h1m1 0h1m1 0h3m1 0h1m1 0h1m1 0h1m1 0h2m1 0h1m1 0h3m1 0h1m1 0h1m6 0h1m1 0h6m2 0h1m2 0h2m2 0h1m2 0h2m1 0h5m2 0h1M2 92.5h1m2 0h4m1 0h3m2 0h2m1 0h6m4 0h1m4 0h1m1 0h2m1 0h5m3 0h1m3 0h1m2 0h2m1 0h1m1 0h1m1 0h1m4 0h2m1 0h1m1 0h1m1 0h1m2 0h2m1 0h1m1 0h1m1 0h5m1 0h1m3 0h2m2 0h4m1 0h1m1 0h4m1 0h2m3 0h2m1 0h6m2 0h1m1 0h1m1 0h1m1 0h7M2 93.5h2m1 0h1m1 0h1m3 0h1m2 0h1m2 0h1m1 0h1m1 0h1m1 0h3m2 0h4m2 0h1m4 0h2m3 0h1m1 0h2m1 0h9m1 0h2m1 0h1m1 0h1m1 0h1m4 0h1m1 0h3m1 0h1m1 0h2m6 0h1m2 0h3m5 0h2m4 0h1m1 0h3m3 0h3m3 0h3m3 0h3m2 0h1m4 0h2m1 0h2M2 94.5h2m3 0h2m2 0h3m1 0h3m2 0h2m3 0h1m5 0h2m2 0h2m2 0h2m1 0h1m1 0h1m1 0h1m6 0h3m3 0h2m1 0h1m1 0h1m1 0h1m4 0h2m3 0h1m2 0h3m2 0h1m3 0h1m1 0h1m2 0h1m1 0h1m1 0h1m3 0h1m5 0h1m2 0h1m2 0h4m1 0h3m1 0h1m2 0h5m1 0h4m2 0h1M2 95.5h4m3 0h1m3 0h1m1 0h3m3 0h6m1 0h3m1 0h1m4 0h1m1 0h1m6 0h2m1 0h5m2 0h3m1 0h2m3 0h2m1 0h4m3 0h1m1 0h1m2 0h1m1 0h1m6 0h1m2 0h1m5 0h7m2 0h1m1 0h2m2 0h2m2 0h1m4 0h1m1 0h2m5 0h5m2 0h1M3 96.5h2m1 0h1m1 0h1m1 0h2m2 0h1m6 0h1m1 0h1m1 0h6m1 0h1m1 0h1m1 0h2m1 0h1m4 0h1m1 0h1m4 0h1m2 0h1m8 0h1m1 0h1m4 0h1m1 0h1m1 0h1m2 0h3m2 0h1m2 0h3m2 0h2m1 0h1m1 0h4m4 0h3m2 0h2m2 0h3m2 0h3m5 0h2m3 0h1m2 0h2m2 0h1M3 97.5h1m1 0h1m1 0h1m1 0h1m1 0h2m1 0h1m1 0h2m3 0h3m1 0h1m1 0h3m3 0h1m2 0h1m3 0h2m3 0h1m2 0h6m3 0h3m1 0h1m2 0h3m4 0h1m1 0h2m1 0h1m2 0h4m4 0h1m1 0h5m4 0h2m1 0h1m4 0h1m3 0h5m3 0h1m4 0h1m1 0h3m1 0h1m5 0h1m2 0h1M2 98.5h3m2 0h7m1 0h2m5 0h1m3 0h3m2 0h2m1 0h1m1 0h3m1 0h2m3 0h3m3 0h3m1 0h3m1 0h2m1 0h3m4 0h1m2 0h5m6 0h2m2 0h2m1 0h1m2 0h2m6 0h1m1 0h2m1 0h1m3 0h3m1 0h1m1 0h3m1 0h2m2 0h1m1 0h2m1 0h1m1 0h4M2 99.5h1m3 0h2m2 0h2m1 0h2m2 0h2m1 0h1m1 0h3m2 0h1m2 0h2m1 0h2m2 0h5m4 0h1m1 0h1m1 0h4m2 0h6m4 0h1m1 0h5m2 0h1m1 0h2m1 0h1m3 0h2m4 0h2m1 0h2m2 0h1m2 0h4m1 0h1m1 0h4m2 0h4m1 0h2m1 0h3m1 0h1m2 0h2m1 0h5m2 0h1M2 100.5h1m1 0h2m2 0h4m2 0h2m1 0h2m1 0h1m1 0h1m9 0h4m4 0h1m3 0h4m1 0h2m3 0h1m3 0h1m5 0h3m3 0h1m3 0h1m2 0h1m1 0h1m1 0h4m1 0h4m3 0h1m1 0h2m1 0h1m4 0h2m3 0h2m2 0h1m4 0h5m2 0h3m1 0h2m1 0h1m3 0h2M2 101.5h1m3 0h2m1 0h1m2 0h4m3 0h1m1 0h1m2 0h4m1 0h3m1 0h1m1 0h1m13 0h2m2 0h2m3 0h3m1 0h1m1 0h2m5 0h2m1 0h1m1 0h1m2 0h2m1 0h1m1 0h1m2 0h1m3 0h4m2 0h3m1 0h4m1 0h1m4 0h1m1 0h3m3 0h2m3 0h4m1 0h1m3 0h1m1 0h1m1 0h2M2 102.5h3m1 0h1m1 0h2m1 0h3m2 0h2m1 0h1m1 0h2m4 0h2m3 0h1m1 0h3m1 0h1m1 0h2m1 0h1m3 0h1m2 0h4m1 0h1m4 0h1m2 0h2m1 0h1m2 0h1m1 0h4m1 0h4m1 0h1m1 0h1m2 0h1m2 0h2m1 0h1m1 0h2m5 0h3m2 0h1m4 0h6m1 0h1m2 0h1m5 0h3m1 0h1m2 0h2m1 0h2M2 103.5h1m1 0h2m6 0h2m4 0h1m1 0h1m2 0h2m4 0h2m1 0h4m3 0h1m4 0h1m1 0h5m1 0h1m3 0h3m2 0h3m2 0h1m2 0h2m2 0h1m1 0h1m1 0h2m2 0h2m3 0h2m1 0h2m3 0h2m2 0h2m1 0h5m1 0h1m2 0h3m3 0h1m4 0h5m1 0h4m1 0h2m1 0h4M2 104.5h1m2 0h9m1 0h1m2 0h4m2 0h1m1 0h7m1 0h3m1 0h1m2 0h2m1 0h2m1 0h1m3 0h6m2 0h1m5 0h1m1 0h2m1 0h2m2 0h2m2 0h5m1 0h4m3 0h3m3 0h2m1 0h1m3 0h6m2 0h1m1 0h1m3 0h2m1 0h1m4 0h1m1 0h8M2 105.5h1m1 0h3m3 0h1m6 0h5m1 0h1m2 0h1m3 0h2m3 0h2m2 0h1m1 0h2m2 0h2m2 0h1m1 0h2m3 0h1m2 0h2m1 0h1m1 0h1m3 0h1m2 0h4m2 0h2m3 0h2m2 0h2m1 0h7m1 0h1m1 0h1m2 0h3m3 0h1m2 0h3m1 0h1m4 0h1m1 0h4m3 0h2m3 0h2M2 106.5h1m2 0h2m1 0h1m1 0h2m1 0h1m1 0h4m3 0h2m1 0h2m1 0h1m1 0h1m2 0h1m6 0h4m2 0h1m2 0h1m2 0h1m1 0h1m1 0h1m1 0h1m1 0h1m2 0h2m5 0h1m1 0h1m3 0h1m1 0h1m1 0h1m1 0h1m1 0h1m4 0h5m4 0h4m1 0h2m1 0h1m1 0h4m1 0h1m1 0h3m1 0h4m1 0h1m5 0h1m1 0h1m1 0h1m1 0h3M2 107.5h2m1 0h2m3 0h1m2 0h2m3 0h2m2 0h3m1 0h1m3 0h3m3 0h2m2 0h1m1 0h2m1 0h1m3 0h4m3 0h1m1 0h1m1 0h2m1 0h2m1 0h3m6 0h4m3 0h1m1 0h2m1 0h1m1 0h2m3 0h1m5 0h5m3 0h1m4 0h1m2 0h3m1 0h1m3 0h1m2 0h1m2 0h1m3 0h4M3 108.5h1m1 0h8m2 0h2m2 0h2m1 0h1m1 0h1m1 0h6m2 0h3m1 0h1m1 0h1m2 0h2m1 0h1m1 0h1m3 0h5m1 0h2m5 0h1m2 0h1m1 0h2m2 0h2m1 0h6m2 0h2m4 0h3m2 0h3m4 0h6m3 0h1m1 0h1m1 0h2m1 0h3m4 0h1m2 0h7M2 109.5h3m4 0h1m2 0h2m3 0h1m1 0h1m2 0h1m4 0h3m1 0h1m1 0h2m2 0h2m2 0h2m9 0h3m3 0h2m2 0h1m5 0h1m2 0h4m2 0h1m1 0h2m6 0h1m2 0h4m1 0h1m1 0h1m1 0h1m1 0h3m4 0h1m2 0h4m5 0h1m1 0h1m1 0h4m1 0h1m1 0h1m1 0h3m2 0h1M4 110.5h3m1 0h4m2 0h3m1 0h1m2 0h1m1 0h1m1 0h2m7 0h1m4 0h2m3 0h1m2 0h5m1 0h1m1 0h1m3 0h4m1 0h2m4 0h1m1 0h3m1 0h1m2 0h2m1 0h1m3 0h1m3 0h1m3 0h4m1 0h1m6 0h2m1 0h1m1 0h1m3 0h1m1 0h1m1 0h3m1 0h1m1 0h2m1 0h1m1 0h1m2 0h1m4 0h1M3 111.5h1m2 0h1m5 0h2m4 0h1m2 0h3m1 0h4m1 0h1m2 0h2m1 0h1m1 0h2m1 0h1m4 0h1m5 0h3m1 0h1m1 0h2m3 0h7m1 0h1m1 0h1m1 0h1m2 0h4m2 0h1m1 0h1m3 0h2m6 0h1m1 0h4m2 0h1m3 0h1m1 0h2m2 0h1m1 0h8m1 0h8m2 0h1M2 112.5h3m3 0h1m5 0h1m2 0h4m3 0h1m2 0h1m2 0h1m3 0h2m1 0h3m2 0h1m8 0h1m1 0h1m1 0h3m4 0h1m1 0h3m1 0h1m1 0h1m3 0h2m1 0h3m1 0h3m1 0h4m4 0h1m1 0h4m4 0h2m2 0h1m1 0h1m2 0h3m2 0h3m1 0h1m4 0h1m3 0h2m2 0h2M2 113.5h2m1 0h1m3 0h1m1 0h1m1 0h2m2 0h1m1 0h1m1 0h1m3 0h2m1 0h1m2 0h1m2 0h3m1 0h4m7 0h2m3 0h1m1 0h7m1 0h1m3 0h1m1 0h2m1 0h2m1 0h1m1 0h1m6 0h1m1 0h1m1 0h5m4 0h2m3 0h1m1 0h1m2 0h1m1 0h2m1 0h1m1 0h1m2 0h3m3 0h3m4 0h1m1 0h1m3 0h2M5 114.5h2m1 0h1m2 0h1m1 0h1m1 0h2m1 0h1m3 0h3m2 0h4m1 0h2m1 0h1m3 0h1m1 0h1m1 0h1m1 0h2m1 0h2m2 0h4m1 0h2m1 0h1m3 0h2m1 0h1m1 0h1m2 0h2m1 0h2m1 0h2m2 0h1m1 0h1m1 0h1m3 0h2m1 0h2m1 0h3m2 0h1m4 0h1m3 0h3m2 0h2m1 0h3m1 0h2m1 0h1m2 0h2m4 0h2m1 0h2M2 115.5h1m1 0h1m5 0h3m2 0h1m1 0h1m1 0h1m2 0h1m2 0h1m1 0h1m2 0h1m1 0h1m1 0h2m9 0h2m2 0h2m2 0h1m4 0h2m1 0h2m1 0h1m1 0h3m1 0h1m1 0h4m1 0h2m1 0h2m6 0h1m1 0h1m3 0h4m3 0h3m3 0h1m1 0h2m1 0h1m1 0h2m1 0h1m1 0h1m1 0h3m3 0h1m2 0h5m1 0h1m1 0h1M2 116.5h2m1 0h1m1 0h4m6 0h6m1 0h1m2 0h1m3 0h2m1 0h1m2 0h1m4 0h1m1 0h2m3 0h1m2 0h1m2 0h2m5 0h4m2 0h1m1 0h1m6 0h2m1 0h1m1 0h1m2 0h3m1 0h1m2 0h2m3 0h4m3 0h1m2 0h2m3 0h1m1 0h6m1 0h1m4 0h1m10 0h1M3 117.5h2m2 0h1m1 0h1m2 0h7m2 0h1m2 0h4m1 0h5m1 0h2m1 0h1m6 0h2m3 0h1m2 0h2m2 0h4m1 0h1m1 0h1m4 0h1m1 0h1m2 0h1m2 0h1m2 0h1m1 0h1m2 0h1m1 0h1m1 0h6m2 0h3m1 0h5m1 0h2m2 0h3m4 0h3m2 0h4m2 0h4m1 0h2M2 118.5h3m1 0h1m1 0h1m2 0h1m1 0h1m3 0h2m1 0h1m2 0h1m1 0h2m4 0h3m1 0h3m6 0h2m1 0h2m2 0h1m3 0h2m1 0h1m1 0h1m3 0h2m4 0h1m1 0h3m1 0h1m1 0h6m2 0h1m1 0h3m1 0h1m2 0h1m1 0h2m2 0h2m3 0h2m2 0h1m1 0h1m2 0h3m1 0h5m1 0h1m2 0h1m4 0h2m1 0h1m1 0h1M3 119.5h1m1 0h1m3 0h3m2 0h1m6 0h1m2 0h1m2 0h2m1 0h1m2 0h1m1 0h2m2 0h2m1 0h1m2 0h1m1 0h1m2 0h2m2 0h2m2 0h2m1 0h2m2 0h6m4 0h1m1 0h2m2 0h1m4 0h2m2 0h4m2 0h3m2 0h3m3 0h1m1 0h2m1 0h1m6 0h1m3 0h2m1 0h1m1 0h4m1 0h2m1 0h3M5 120.5h6m1 0h1m1 0h2m1 0h2m1 0h1m3 0h3m1 0h3m5 0h3m3 0h3m2 0h4m1 0h1m2 0h1m2 0h1m3 0h1m2 0h1m4 0h3m3 0h2m2 0h2m1 0h4m2 0h1m2 0h2m2 0h3m1 0h1m2 0h6m5 0h1m3 0h5m1 0h1m5 0h6M3 121.5h3m1 0h1m1 0h6m1 0h1m1 0h5m7 0h5m2 0h1m5 0h1m1 0h1m2 0h1m1 0h1m1 0h3m4 0h1m2 0h1m5 0h1m1 0h5m1 0h2m2 0h1m1 0h1m3 0h2m3 0h4m7 0h5m5 0h2m1 0h1m1 0h1m2 0h1m1 0h5m1 0h1m6 0h1m1 0h2M2 122.5h1m1 0h1m2 0h2m3 0h1m2 0h5m2 0h3m1 0h1m1 0h1m1 0h1m1 0h3m1 0h1m3 0h2m1 0h2m1 0h1m1 0h1m1 0h3m2 0h1m4 0h2m1 0h2m1 0h1m2 0h5m2 0h2m1 0h3m2 0h4m1 0h5m3 0h4m3 0h5m4 0h2m2 0h2m4 0h1m1 0h1m3 0h1m6 0h3M2 123.5h1m1 0h3m2 0h5m2 0h1m2 0h1m1 0h1m8 0h2m1 0h1m3 0h3m3 0h2m1 0h1m3 0h3m1 0h5m1 0h2m1 0h2m1 0h2m1 0h1m2 0h1m2 0h2m1 0h4m2 0h2m2 0h5m1 0h3m2 0h4m5 0h3m5 0h3m1 0h1m5 0h1m1 0h1m1 0h5m1 0h2M2 124.5h1m1 0h9m2 0h1m3 0h1m2 0h3m1 0h1m2 0h2m1 0h1m1 0h2m1 0h1m2 0h1m2 0h1m2 0h1m7 0h3m1 0h2m2 0h4m2 0h1m1 0h1m3 0h1m2 0h1m8 0h2m3 0h3m3 0h3m3 0h2m2 0h2m5 0h1m1 0h2m1 0h4m5 0h1m2 0h1m1 0h1m1 0h1M2 125.5h1m1 0h3m3 0h1m8 0h1m3 0h1m2 0h1m1 0h1m2 0h3m3 0h1m1 0h2m2 0h2m2 0h2m5 0h1m1 0h2m1 0h2m4 0h1m4 0h2m4 0h1m2 0h2m4 0h3m1 0h4m1 0h1m3 0h2m3 0h1m1 0h2m1 0h1m1 0h1m1 0h4m2 0h1m3 0h1m1 0h4m1 0h1m1 0h1m1 0h3m1 0h2M2 126.5h8m1 0h1m1 0h2m4 0h9m1 0h3m2 0h3m2 0h1m1 0h1m1 0h3m2 0h1m1 0h1m1 0h4m4 0h3m1 0h1m4 0h4m2 0h2m1 0h3m1 0h4m2 0h1m8 0h6m2 0h1m5 0h1m2 0h1m1 0h1m2 0h4m3 0h1m2 0h1m3 0h1m3 0h1M2 127.5h1m2 0h1m5 0h1m1 0h1m2 0h1m1 0h2m1 0h1m3 0h1m1 0h1m1 0h1m1 0h2m5 0h2m2 0h1m4 0h1m1 0h2m1 0h3m2 0h2m1 0h2m1 0h2m1 0h1m2 0h1m8 0h2m1 0h1m2 0h1m4 0h2m1 0h4m1 0h1m1 0h2m5 0h2m1 0h2m3 0h3m1 0h1m1 0h4m3 0h6m1 0h2m2 0h1M2 128.5h1m1 0h1m2 0h7m1 0h2m3 0h1m1 0h1m1 0h2m1 0h1m4 0h2m1 0h1m3 0h1m1 0h2m1 0h3m2 0h7m2 0h2m3 0h1m1 0h2m1 0h1m1 0h1m3 0h4m3 0h1m2 0h5m4 0h1m3 0h2m1 0h1m3 0h5m5 0h1m1 0h2m1 0h3m3 0h2m3 0h2m2 0h1m1 0h2M3 129.5h1m1 0h3m6 0h4m1 0h1m2 0h1m1 0h3m3 0h1m4 0h1m1 0h1m3 0h2m1 0h5m1 0h1m1 0h1m1 0h1m2 0h4m1 0h1m2 0h1m3 0h1m1 0h1m2 0h1m2 0h1m4 0h1m4 0h1m2 0h3m2 0h1m1 0h1m1 0h1m6 0h1m1 0h1m1 0h6m3 0h2m1 0h1m1 0h2m3 0h2m1 0h4m1 0h2M2 130.5h5m1 0h1m5 0h3m2 0h1m1 0h1m3 0h6m1 0h1m1 0h2m3 0h1m5 0h1m3 0h10m1 0h2m2 0h1m1 0h1m1 0h1m1 0h1m1 0h2m1 0h2m1 0h9m3 0h1m3 0h1m1 0h2m1 0h1m1 0h12m2 0h1m1 0h1m1 0h3m1 0h1m1 0h1m2 0h7m1 0h2M10 131.5h4m2 0h1m3 0h3m3 0h1m3 0h2m5 0h2m1 0h3m2 0h1m2 0h1m3 0h1m3 0h3m2 0h1m2 0h1m1 0h2m1 0h1m2 0h3m2 0h2m3 0h2m3 0h1m1 0h1m1 0h1m1 0h2m1 0h3m3 0h1m1 0h1m3 0h2m3 0h2m1 0h1m1 0h1m3 0h1m3 0h5m3 0h1m1 0h3M2 132.5h7m3 0h2m1 0h1m2 0h3m5 0h1m1 0h1m1 0h2m2 0h1m2 0h1m4 0h1m1 0h2m1 0h1m1 0h4m1 0h1m1 0h1m2 0h2m1 0h5m3 0h2m3 0h1m2 0h1m1 0h1m1 0h1m1 0h3m4 0h3m4 0h4m1 0h2m1 0h1m1 0h3m3 0h1m2 0h5m2 0h3m2 0h2m1 0h1m1 0h1m1 0h1M2 133.5h1m5 0h1m1 0h1m5 0h3m1 0h2m2 0h3m3 0h3m1 0h3m1 0h3m4 0h3m1 0h2m1 0h1m3 0h4m1 0h1m2 0h3m2 0h3m2 0h1m1 0h1m1 0h1m3 0h1m4 0h1m1 0h1m1 0h2m1 0h1m2 0h3m2 0h3m3 0h1m1 0h7m1 0h1m1 0h1m2 0h3m3 0h2m3 0h2m1 0h2M2 134.5h1m1 0h3m1 0h1m1 0h3m1 0h2m2 0h1m1 0h2m2 0h1m1 0h7m2 0h1m1 0h2m1 0h2m2 0h1m2 0h1m1 0h2m1 0h6m2 0h3m1 0h1m2 0h1m4 0h3m1 0h8m1 0h2m2 0h1m4 0h3m1 0h1m2 0h1m2 0h5m1 0h2m1 0h1m1 0h1m3 0h1m1 0h1m1 0h1m4 0h1m1 0h5m1 0h2M2 135.5h1m1 0h3m1 0h1m1 0h2m2 0h3m2 0h2m2 0h2m1 0h2m2 0h2m1 0h1m3 0h1m5 0h1m2 0h1m6 0h1m1 0h1m2 0h1m5 0h1m1 0h3m1 0h1m2 0h1m3 0h1m1 0h6m1 0h1m1 0h1m2 0h1m2 0h1m3 0h1m3 0h1m2 0h1m1 0h1m1 0h2m1 0h2m3 0h5m1 0h1m3 0h1m6 0h4M2 136.5h1m1 0h3m1 0h1m1 0h4m7 0h1m8 0h4m1 0h1m1 0h3m1 0h2m1 0h2m2 0h3m2 0h3m2 0h2m2 0h7m5 0h1m1 0h2m2 0h1m2 0h3m1 0h1m3 0h3m2 0h6m1 0h2m4 0h1m2 0h1m1 0h1m2 0h1m1 0h4m2 0h2m2 0h1m1 0h4m2 0h1M2 137.5h1m5 0h1m2 0h1m1 0h2m2 0h1m1 0h7m2 0h2m1 0h2m3 0h4m6 0h2m1 0h1m4 0h4m1 0h2m1 0h1m3 0h1m1 0h1m2 0h1m1 0h2m7 0h2m3 0h1m1 0h1m1 0h2m2 0h1m2 0h2m3 0h3m1 0h2m2 0h4m3 0h1m1 0h1m2 0h3m1 0h1m1 0h1m1 0h1m1 0h1m1 0h1m1 0h1M2 138.5h7m1 0h1m2 0h1m1 0h2m2 0h2m4 0h2m4 0h4m3 0h1m1 0h1m2 0h1m2 0h1m2 0h1m1 0h2m1 0h1m1 0h1m3 0h2m1 0h3m1 0h1m1 0h1m2 0h3m1 0h1m2 0h2m3 0h2m1 0h1m3 0h2m1 0h1m1 0h1m4 0h2m2 0h1m1 0h2m1 0h5m1 0h1m3 0h3m1 0h1m2 0h2m4 0h4"/></svg>

